<svg xmlns="http://www.w3.org/2000/svg" xmlns:xlink="http://www.w3.org/1999/xlink" width="1920" zoomAndPan="magnify" viewBox="0 0 1440 809.999993" height="1080" preserveAspectRatio="xMidYMid meet" version="1.0"><defs><g/><clipPath id="dac3d9d582"><path d="M 971.992188 127.285156 L 1397.992188 127.285156 L 1397.992188 659.785156 L 971.992188 659.785156 Z M 971.992188 127.285156 " clip-rule="nonzero"/></clipPath><clipPath id="fdd1b73668"><path d="M 1260 221 L 1397.992188 221 L 1397.992188 366 L 1260 366 Z M 1260 221 " clip-rule="nonzero"/></clipPath><clipPath id="64a1653012"><path d="M 1238 127.285156 L 1397.992188 127.285156 L 1397.992188 288 L 1238 288 Z M 1238 127.285156 " clip-rule="nonzero"/></clipPath><clipPath id="9efefb0c31"><path d="M 81 127.285156 L 613.5 127.285156 L 613.5 572 L 81 572 Z M 81 127.285156 " clip-rule="nonzero"/></clipPath><clipPath id="02180658e8"><path d="M 306 402 L 613.5 402 L 613.5 572 L 306 572 Z M 306 402 " clip-rule="nonzero"/></clipPath><clipPath id="c0f844eca5"><path d="M 81 370 L 613.5 370 L 613.5 659.785156 L 81 659.785156 Z M 81 370 " clip-rule="nonzero"/></clipPath></defs><rect x="-144" width="1728" fill="#ffffff" y="-80.999999" height="971.999992" fill-opacity="1"/><rect x="-144" width="1728" fill="#ffffff" y="-80.999999" height="971.999992" fill-opacity="1"/><g clip-path="url(#dac3d9d582)"><path fill="#de3b38" d="M 1025.242188 127.289062 L 1238.242188 127.289062 L 1397.992188 287.039062 L 1397.992188 606.53125 C 1397.992188 608.277344 1397.910156 610.015625 1397.738281 611.75 C 1397.566406 613.488281 1397.3125 615.210938 1396.96875 616.921875 C 1396.628906 618.632812 1396.207031 620.320312 1395.699219 621.988281 C 1395.195312 623.660156 1394.609375 625.296875 1393.941406 626.910156 C 1393.273438 628.519531 1392.527344 630.09375 1391.707031 631.632812 C 1390.882812 633.171875 1389.988281 634.664062 1389.019531 636.117188 C 1388.050781 637.566406 1387.011719 638.964844 1385.90625 640.3125 C 1384.800781 641.660156 1383.628906 642.953125 1382.398438 644.183594 C 1381.164062 645.417969 1379.875 646.589844 1378.523438 647.695312 C 1377.175781 648.800781 1375.777344 649.839844 1374.328125 650.808594 C 1372.878906 651.777344 1371.382812 652.671875 1369.84375 653.492188 C 1368.308594 654.316406 1366.734375 655.0625 1365.121094 655.726562 C 1363.511719 656.394531 1361.871094 656.980469 1360.203125 657.488281 C 1358.53125 657.996094 1356.84375 658.417969 1355.132812 658.757812 C 1353.421875 659.097656 1351.699219 659.355469 1349.964844 659.523438 C 1348.226562 659.695312 1346.488281 659.78125 1344.742188 659.78125 L 1025.242188 659.78125 C 1023.5 659.78125 1021.761719 659.695312 1020.023438 659.523438 C 1018.289062 659.355469 1016.566406 659.097656 1014.855469 658.757812 C 1013.144531 658.417969 1011.453125 657.996094 1009.785156 657.488281 C 1008.117188 656.980469 1006.476562 656.394531 1004.867188 655.726562 C 1003.253906 655.0625 1001.679688 654.316406 1000.140625 653.492188 C 998.605469 652.671875 997.109375 651.777344 995.660156 650.808594 C 994.210938 649.839844 992.808594 648.800781 991.460938 647.695312 C 990.113281 646.589844 988.824219 645.417969 987.589844 644.183594 C 986.355469 642.953125 985.1875 641.660156 984.082031 640.3125 C 982.976562 638.964844 981.9375 637.566406 980.96875 636.117188 C 980 634.664062 979.105469 633.171875 978.28125 631.632812 C 977.460938 630.09375 976.714844 628.519531 976.046875 626.910156 C 975.378906 625.296875 974.792969 623.660156 974.285156 621.988281 C 973.78125 620.320312 973.355469 618.632812 973.015625 616.921875 C 972.675781 615.210938 972.421875 613.488281 972.25 611.75 C 972.078125 610.015625 971.992188 608.277344 971.992188 606.53125 L 971.992188 180.539062 C 971.992188 178.796875 972.078125 177.054688 972.25 175.320312 C 972.421875 173.585938 972.675781 171.863281 973.015625 170.152344 C 973.355469 168.441406 973.78125 166.75 974.285156 165.082031 C 974.792969 163.414062 975.378906 161.773438 976.046875 160.160156 C 976.714844 158.550781 977.460938 156.976562 978.28125 155.4375 C 979.105469 153.898438 980 152.40625 980.96875 150.957031 C 981.9375 149.503906 982.976562 148.105469 984.082031 146.757812 C 985.1875 145.410156 986.355469 144.121094 987.589844 142.886719 C 988.824219 141.652344 990.113281 140.484375 991.460938 139.378906 C 992.808594 138.269531 994.210938 137.234375 995.660156 136.265625 C 997.109375 135.296875 998.605469 134.398438 1000.140625 133.578125 C 1001.679688 132.753906 1003.253906 132.011719 1004.867188 131.34375 C 1006.476562 130.675781 1008.117188 130.089844 1009.785156 129.582031 C 1011.453125 129.078125 1013.144531 128.652344 1014.855469 128.3125 C 1016.566406 127.972656 1018.289062 127.71875 1020.023438 127.546875 C 1021.761719 127.375 1023.5 127.289062 1025.242188 127.289062 Z M 1025.242188 127.289062 " fill-opacity="1" fill-rule="nonzero"/></g><g fill="#ffffff" fill-opacity="1"><g transform="translate(1025.243859, 512.547522)"><g><path d="M 101.09375 -75.109375 C 101.09375 -68.046875 99.476562 -61.726562 96.25 -56.15625 C 93.03125 -50.59375 88.414062 -46.289062 82.40625 -43.25 C 76.40625 -40.207031 69.269531 -38.6875 61 -38.6875 L 33.703125 -38.6875 L 33.703125 0 L 10.6875 0 L 10.6875 -109.90625 L 60.0625 -109.90625 C 73.21875 -109.90625 83.34375 -106.875 90.4375 -100.8125 C 97.539062 -94.757812 101.09375 -86.191406 101.09375 -75.109375 Z M 77.921875 -74.734375 C 77.921875 -86.273438 71.109375 -92.046875 57.484375 -92.046875 L 33.703125 -92.046875 L 33.703125 -56.390625 L 58.109375 -56.390625 C 64.453125 -56.390625 69.335938 -57.960938 72.765625 -61.109375 C 76.203125 -64.253906 77.921875 -68.796875 77.921875 -74.734375 Z M 77.921875 -74.734375 "/></g></g></g><g fill="#ffffff" fill-opacity="1"><g transform="translate(1131.789008, 512.547522)"><g><path d="M 108.65625 -55.765625 C 108.65625 -44.429688 106.429688 -34.539062 101.984375 -26.09375 C 97.535156 -17.644531 91.242188 -11.179688 83.109375 -6.703125 C 74.972656 -2.234375 65.648438 0 55.140625 0 L 10.6875 0 L 10.6875 -109.90625 L 50.46875 -109.90625 C 68.976562 -109.90625 83.300781 -105.238281 93.4375 -95.90625 C 103.582031 -86.570312 108.65625 -73.191406 108.65625 -55.765625 Z M 85.484375 -55.765625 C 85.484375 -67.578125 82.414062 -76.585938 76.28125 -82.796875 C 70.144531 -89.015625 61.382812 -92.125 50 -92.125 L 33.703125 -92.125 L 33.703125 -17.78125 L 53.203125 -17.78125 C 63.078125 -17.78125 70.925781 -21.1875 76.75 -28 C 82.570312 -34.8125 85.484375 -44.066406 85.484375 -55.765625 Z M 85.484375 -55.765625 "/></g></g></g><g fill="#ffffff" fill-opacity="1"><g transform="translate(1247.147933, 512.547522)"><g><path d="M 33.703125 -92.125 L 33.703125 -58.109375 L 89.9375 -58.109375 L 89.9375 -40.328125 L 33.703125 -40.328125 L 33.703125 0 L 10.6875 0 L 10.6875 -109.90625 L 91.734375 -109.90625 L 91.734375 -92.125 Z M 33.703125 -92.125 "/></g></g></g><g clip-path="url(#fdd1b73668)"><path fill="#d13532" d="M 1397.992188 365.847656 L 1260.078125 276.921875 L 1329.035156 221.273438 L 1397.992188 287.039062 Z M 1397.992188 365.847656 " fill-opacity="1" fill-rule="nonzero"/></g><g clip-path="url(#64a1653012)"><path fill="#d56c6f" d="M 1238.242188 127.289062 L 1238.242188 233.789062 C 1238.242188 235.53125 1238.328125 237.273438 1238.5 239.007812 C 1238.671875 240.742188 1238.925781 242.464844 1239.265625 244.175781 C 1239.605469 245.886719 1240.03125 247.578125 1240.535156 249.246094 C 1241.042969 250.914062 1241.628906 252.554688 1242.296875 254.164062 C 1242.964844 255.777344 1243.710938 257.351562 1244.53125 258.890625 C 1245.355469 260.429688 1246.25 261.921875 1247.21875 263.371094 C 1248.1875 264.820312 1249.222656 266.222656 1250.332031 267.570312 C 1251.4375 268.917969 1252.605469 270.207031 1253.839844 271.441406 C 1255.074219 272.675781 1256.363281 273.84375 1257.710938 274.949219 C 1259.058594 276.058594 1260.460938 277.09375 1261.910156 278.0625 C 1263.359375 279.03125 1264.855469 279.929688 1266.390625 280.75 C 1267.929688 281.570312 1269.503906 282.316406 1271.117188 282.984375 C 1272.726562 283.652344 1274.367188 284.238281 1276.035156 284.746094 C 1277.703125 285.25 1279.394531 285.675781 1281.105469 286.015625 C 1282.816406 286.355469 1284.539062 286.609375 1286.273438 286.78125 C 1288.011719 286.953125 1289.75 287.039062 1291.492188 287.039062 L 1397.992188 287.039062 Z M 1238.242188 127.289062 " fill-opacity="1" fill-rule="nonzero"/></g><g clip-path="url(#9efefb0c31)"><path fill="#f3f8f9" d="M 461.054688 206.652344 C 489.25 206.652344 512.039062 229.441406 512.039062 257.636719 C 512.039062 285.789062 489.25 308.621094 461.054688 308.621094 C 432.902344 308.621094 410.066406 285.789062 410.066406 257.636719 C 410.066406 229.441406 432.902344 206.652344 461.054688 206.652344 Z M 140.027344 127.285156 C 107.347656 127.285156 81 153.632812 81 186.3125 L 81 370.191406 C 155.375 370.191406 234.464844 409.25 314.246094 452.980469 C 369.574219 430.652344 413.117188 402.226562 472.191406 402.226562 C 525.210938 402.226562 565.703125 425.105469 613.40625 445.90625 L 613.40625 571.960938 L 613.5 571.960938 L 613.5 186.3125 C 613.5 153.632812 587.152344 127.285156 554.472656 127.285156 L 140.027344 127.285156 " fill-opacity="1" fill-rule="nonzero"/></g><g clip-path="url(#02180658e8)"><path fill="#74cd8b" d="M 472.285156 402.226562 C 413.210938 402.226562 361.441406 432.917969 306.109375 455.199219 C 407.570312 510.851562 518.277344 571.914062 613.5 571.960938 L 613.5 445.90625 C 565.796875 425.105469 525.304688 402.226562 472.285156 402.226562 " fill-opacity="1" fill-rule="nonzero"/></g><path fill="#f7ea5f" d="M 512.039062 257.589844 C 512.039062 285.789062 489.203125 308.574219 461.054688 308.574219 C 432.902344 308.574219 410.066406 285.789062 410.066406 257.589844 C 410.066406 229.441406 432.902344 206.605469 461.054688 206.605469 C 489.203125 206.605469 512.039062 229.441406 512.039062 257.589844 " fill-opacity="1" fill-rule="nonzero"/><g clip-path="url(#c0f844eca5)"><path fill="#95d9a5" d="M 81 370.191406 L 81 600.757812 C 81 633.4375 107.347656 659.785156 140.027344 659.785156 L 554.472656 659.785156 C 587.152344 659.785156 613.5 633.4375 613.5 600.757812 L 613.5 571.960938 C 443.441406 571.960938 250.085938 370.191406 81 370.191406 " fill-opacity="1" fill-rule="nonzero"/></g><path stroke-linecap="butt" transform="matrix(0.75, 0, 0, 0.75, 613.469327, 356.020432)" fill="none" stroke-linejoin="miter" d="M -0.000769813 49.998801 L 432.843002 49.998801 " stroke="#4285f4" stroke-width="100" stroke-opacity="1" stroke-miterlimit="4"/><path stroke-linecap="round" transform="matrix(0.75, 0, 0, 0.75, 613.469327, 356.020432)" fill="none" stroke-linejoin="round" d="M 232.842992 -100.001207 L 432.843002 49.998801 L 232.842992 199.998808 " stroke="#4285f4" stroke-width="100" stroke-opacity="1" stroke-miterlimit="4"/></svg>