<svg xmlns="http://www.w3.org/2000/svg" xmlns:xlink="http://www.w3.org/1999/xlink" width="500" zoomAndPan="magnify" viewBox="0 0 375 374.999991" height="500" preserveAspectRatio="xMidYMid meet" version="1.0"><defs><g/></defs><path stroke-linecap="butt" transform="matrix(1.501067, 0, 0, 1.501067, -44.363633, -147.352783)" fill="none" stroke-linejoin="miter" d="M 162.551289 141.6865 L 152.771787 186.612881 L 113.372725 186.612881 L 116.490299 172.016491 L 100.335123 172.016491 L 93.389542 204.186319 L 143.986368 204.186319 L 102.744867 234.51631 L 86.727613 234.51631 L 72.555401 298.858569 L 33.015815 298.858569 L 62.635374 163.652648 L 45.769765 141.6865 Z M 162.551289 141.6865 " stroke="#ffffff" stroke-width="11.247381" stroke-opacity="1" stroke-miterlimit="4"/><g fill="#000000" fill-opacity="1"><g transform="translate(5.195027, 301.466204)"><g><path d="M 194.4375 -236.140625 L 179.765625 -168.703125 L 120.625 -168.703125 L 125.296875 -190.609375 L 101.046875 -190.609375 L 90.625 -142.328125 L 166.578125 -142.328125 L 104.671875 -96.796875 L 80.625 -96.796875 L 59.359375 -0.21875 L 0 -0.21875 L 44.46875 -203.171875 L 19.140625 -236.140625 Z M 194.4375 -236.140625 "/></g></g></g><path stroke-linecap="butt" transform="matrix(1.481295, 0, 0, 1.481295, 150.06773, -146.778888)" fill="none" stroke-linejoin="miter" d="M 19.476366 298.858046 C 18.342434 298.858046 17.161035 298.43348 15.932169 297.581713 C 14.798237 296.827516 13.759239 295.928282 12.815175 294.889284 C 11.963407 293.850286 11.209211 292.716354 10.547311 291.487488 C 10.357443 290.920522 10.193946 290.377289 10.051545 289.85779 C 9.909145 289.338291 9.932878 288.889992 10.122746 288.512894 L 22.735761 230.405473 L 57.457813 251.947543 L 53.773853 268.529321 L 81.834714 268.529321 L 86.228041 248.263583 L 27.838455 207.447306 L 42.152369 141.687162 L 137.53187 141.687162 C 138.760736 141.687162 139.942135 142.06426 141.07343 142.821094 C 142.207362 143.575291 143.248997 144.474525 144.193062 145.513523 C 145.042192 146.552521 145.799026 147.686453 146.460926 148.915319 C 146.838024 150.144185 146.980425 151.183183 146.885491 152.032314 L 134.981842 206.313374 L 100.257153 184.771303 L 102.952219 172.015887 L 75.315923 172.015887 L 72.056528 186.896766 L 130.303713 227.855444 L 114.855868 298.858046 Z M 19.476366 298.858046 " stroke="#ffffff" stroke-width="11.247381" stroke-opacity="1" stroke-miterlimit="4"/><g fill="#38b6ff" fill-opacity="1"><g transform="translate(156.664121, 296.128245)"><g><path d="M 22.25 -0.203125 C 20.570312 -0.203125 18.820312 -0.832031 17 -2.09375 C 15.320312 -3.21875 13.785156 -4.550781 12.390625 -6.09375 C 11.128906 -7.625 10.007812 -9.300781 9.03125 -11.125 C 8.75 -11.96875 8.503906 -12.773438 8.296875 -13.546875 C 8.085938 -14.316406 8.117188 -14.976562 8.390625 -15.53125 L 27.078125 -101.609375 L 78.515625 -69.703125 L 73.0625 -45.140625 L 114.625 -45.140625 L 121.140625 -75.15625 L 34.640625 -135.625 L 55.84375 -233.03125 L 197.125 -233.03125 C 198.945312 -233.03125 200.695312 -232.472656 202.375 -231.359375 C 204.0625 -230.234375 205.601562 -228.898438 207 -227.359375 C 208.257812 -225.816406 209.378906 -224.140625 210.359375 -222.328125 C 210.921875 -220.503906 211.128906 -218.960938 210.984375 -217.703125 L 193.359375 -137.296875 L 141.921875 -169.203125 L 145.90625 -188.109375 L 104.96875 -188.109375 L 100.140625 -166.0625 L 186.421875 -105.390625 L 163.546875 -0.203125 Z M 22.25 -0.203125 "/></g></g></g></svg>