<svg xmlns="http://www.w3.org/2000/svg" xmlns:xlink="http://www.w3.org/1999/xlink" width="1920" zoomAndPan="magnify" viewBox="0 0 1440 809.999993" height="1080" preserveAspectRatio="xMidYMid meet" version="1.0"><defs><g/><clipPath id="55705c644e"><path d="M 479.75 138.765625 L 905.75 138.765625 L 905.75 671.265625 L 479.75 671.265625 Z M 479.75 138.765625 " clip-rule="nonzero"/></clipPath><clipPath id="857742b48a"><path d="M 767 232 L 905.75 232 L 905.75 378 L 767 378 Z M 767 232 " clip-rule="nonzero"/></clipPath><clipPath id="3d334d0ca5"><path d="M 746 138.765625 L 905.75 138.765625 L 905.75 299 L 746 299 Z M 746 138.765625 " clip-rule="nonzero"/></clipPath><clipPath id="61460cec81"><path d="M 759.757812 486 L 1011 486 L 1011 810 L 759.757812 810 Z M 759.757812 486 " clip-rule="nonzero"/></clipPath></defs><g clip-path="url(#55705c644e)"><path fill="#de3b38" d="M 533 138.769531 L 746 138.769531 L 825.875 218.644531 L 905.75 298.515625 L 905.75 618.011719 C 905.75 619.753906 905.664062 621.496094 905.492188 623.230469 C 905.320312 624.964844 905.066406 626.691406 904.726562 628.398438 C 904.386719 630.109375 903.960938 631.800781 903.457031 633.46875 C 902.949219 635.136719 902.363281 636.777344 901.695312 638.390625 C 901.027344 640 900.285156 641.574219 899.460938 643.113281 C 898.640625 644.652344 897.742188 646.144531 896.773438 647.59375 C 895.804688 649.046875 894.769531 650.445312 893.660156 651.792969 C 892.554688 653.140625 891.386719 654.429688 890.152344 655.664062 C 888.917969 656.898438 887.628906 658.066406 886.28125 659.175781 C 884.933594 660.28125 883.53125 661.316406 882.082031 662.285156 C 880.632812 663.253906 879.140625 664.152344 877.601562 664.972656 C 876.0625 665.796875 874.488281 666.539062 872.875 667.207031 C 871.265625 667.875 869.625 668.460938 867.957031 668.96875 C 866.289062 669.472656 864.597656 669.898438 862.886719 670.238281 C 861.175781 670.578125 859.453125 670.832031 857.71875 671.003906 C 855.984375 671.175781 854.242188 671.261719 852.5 671.261719 L 533 671.261719 C 531.253906 671.261719 529.515625 671.175781 527.78125 671.003906 C 526.042969 670.832031 524.320312 670.578125 522.609375 670.238281 C 520.898438 669.898438 519.210938 669.472656 517.542969 668.96875 C 515.871094 668.460938 514.230469 667.875 512.621094 667.207031 C 511.007812 666.539062 509.433594 665.796875 507.898438 664.972656 C 506.359375 664.152344 504.863281 663.253906 503.414062 662.285156 C 501.964844 661.316406 500.566406 660.28125 499.21875 659.175781 C 497.871094 658.066406 496.578125 656.898438 495.34375 655.664062 C 494.113281 654.429688 492.941406 653.140625 491.835938 651.792969 C 490.730469 650.445312 489.691406 649.046875 488.722656 647.59375 C 487.753906 646.144531 486.859375 644.652344 486.035156 643.113281 C 485.214844 641.574219 484.46875 640 483.800781 638.390625 C 483.136719 636.777344 482.546875 635.136719 482.042969 633.46875 C 481.535156 631.800781 481.113281 630.109375 480.773438 628.398438 C 480.433594 626.691406 480.175781 624.964844 480.003906 623.230469 C 479.835938 621.496094 479.75 619.753906 479.75 618.011719 L 479.75 192.019531 C 479.75 190.273438 479.835938 188.535156 480.003906 186.800781 C 480.175781 185.0625 480.433594 183.339844 480.773438 181.628906 C 481.113281 179.921875 481.535156 178.230469 482.042969 176.5625 C 482.546875 174.890625 483.136719 173.253906 483.800781 171.640625 C 484.46875 170.03125 485.214844 168.457031 486.035156 166.917969 C 486.859375 165.378906 487.753906 163.886719 488.722656 162.433594 C 489.691406 160.984375 490.730469 159.585938 491.835938 158.238281 C 492.941406 156.890625 494.113281 155.597656 495.34375 154.367188 C 496.578125 153.132812 497.871094 151.964844 499.21875 150.855469 C 500.566406 149.75 501.964844 148.710938 503.414062 147.742188 C 504.863281 146.773438 506.359375 145.878906 507.898438 145.058594 C 509.433594 144.234375 511.011719 143.492188 512.621094 142.824219 C 514.230469 142.15625 515.871094 141.570312 517.542969 141.0625 C 519.210938 140.554688 520.898438 140.132812 522.609375 139.792969 C 524.320312 139.453125 526.042969 139.195312 527.78125 139.027344 C 529.515625 138.855469 531.253906 138.769531 533 138.769531 Z M 533 138.769531 " fill-opacity="1" fill-rule="nonzero"/></g><g fill="#ffffff" fill-opacity="1"><g transform="translate(532.998915, 524.027106)"><g><path d="M 101.09375 -75.109375 C 101.09375 -68.046875 99.476562 -61.726562 96.25 -56.15625 C 93.03125 -50.59375 88.414062 -46.289062 82.40625 -43.25 C 76.40625 -40.207031 69.269531 -38.6875 61 -38.6875 L 33.703125 -38.6875 L 33.703125 0 L 10.6875 0 L 10.6875 -109.90625 L 60.0625 -109.90625 C 73.21875 -109.90625 83.34375 -106.875 90.4375 -100.8125 C 97.539062 -94.757812 101.09375 -86.191406 101.09375 -75.109375 Z M 77.921875 -74.734375 C 77.921875 -86.273438 71.109375 -92.046875 57.484375 -92.046875 L 33.703125 -92.046875 L 33.703125 -56.390625 L 58.109375 -56.390625 C 64.453125 -56.390625 69.335938 -57.960938 72.765625 -61.109375 C 76.203125 -64.253906 77.921875 -68.796875 77.921875 -74.734375 Z M 77.921875 -74.734375 "/></g></g></g><g fill="#ffffff" fill-opacity="1"><g transform="translate(639.544064, 524.027106)"><g><path d="M 108.65625 -55.765625 C 108.65625 -44.429688 106.429688 -34.539062 101.984375 -26.09375 C 97.535156 -17.644531 91.242188 -11.179688 83.109375 -6.703125 C 74.972656 -2.234375 65.648438 0 55.140625 0 L 10.6875 0 L 10.6875 -109.90625 L 50.46875 -109.90625 C 68.976562 -109.90625 83.300781 -105.238281 93.4375 -95.90625 C 103.582031 -86.570312 108.65625 -73.191406 108.65625 -55.765625 Z M 85.484375 -55.765625 C 85.484375 -67.578125 82.414062 -76.585938 76.28125 -82.796875 C 70.144531 -89.015625 61.382812 -92.125 50 -92.125 L 33.703125 -92.125 L 33.703125 -17.78125 L 53.203125 -17.78125 C 63.078125 -17.78125 70.925781 -21.1875 76.75 -28 C 82.570312 -34.8125 85.484375 -44.066406 85.484375 -55.765625 Z M 85.484375 -55.765625 "/></g></g></g><g fill="#ffffff" fill-opacity="1"><g transform="translate(754.90299, 524.027106)"><g><path d="M 33.703125 -92.125 L 33.703125 -58.109375 L 89.9375 -58.109375 L 89.9375 -40.328125 L 33.703125 -40.328125 L 33.703125 0 L 10.6875 0 L 10.6875 -109.90625 L 91.734375 -109.90625 L 91.734375 -92.125 Z M 33.703125 -92.125 "/></g></g></g><g clip-path="url(#857742b48a)"><path fill="#d13532" d="M 905.75 377.324219 L 767.832031 288.398438 L 836.789062 232.753906 L 905.75 298.515625 Z M 905.75 377.324219 " fill-opacity="1" fill-rule="nonzero"/></g><g clip-path="url(#3d334d0ca5)"><path fill="#d56c6f" d="M 746 138.769531 L 746 245.269531 C 746 247.011719 746.085938 248.75 746.253906 250.488281 C 746.425781 252.222656 746.683594 253.945312 747.023438 255.65625 C 747.363281 257.367188 747.785156 259.054688 748.292969 260.726562 C 748.796875 262.394531 749.386719 264.035156 750.050781 265.644531 C 750.71875 267.257812 751.464844 268.832031 752.285156 270.371094 C 753.109375 271.90625 754.003906 273.402344 754.972656 274.851562 C 755.941406 276.300781 756.980469 277.699219 758.085938 279.050781 C 759.191406 280.398438 760.363281 281.6875 761.59375 282.921875 C 762.828125 284.152344 764.121094 285.324219 765.46875 286.429688 C 766.816406 287.535156 768.214844 288.574219 769.664062 289.542969 C 771.113281 290.511719 772.609375 291.40625 774.148438 292.230469 C 775.683594 293.050781 777.257812 293.796875 778.871094 294.464844 C 780.480469 295.132812 782.121094 295.71875 783.792969 296.222656 C 785.460938 296.730469 787.148438 297.152344 788.859375 297.492188 C 790.570312 297.835938 792.292969 298.089844 794.03125 298.261719 C 795.765625 298.429688 797.503906 298.515625 799.25 298.515625 L 905.75 298.515625 Z M 746 138.769531 " fill-opacity="1" fill-rule="nonzero"/></g><g clip-path="url(#61460cec81)"><path fill="#000000" d="M 984.074219 611.207031 L 984.074219 584.625 C 984.074219 530.253906 939.792969 486 885.390625 486 C 830.984375 486 786.6875 530.242188 786.6875 584.625 L 786.6875 611.207031 C 771.789062 611.609375 759.816406 623.742188 759.816406 638.730469 L 759.816406 782.398438 C 759.816406 783.304688 759.859375 784.207031 759.949219 785.105469 C 760.039062 786.003906 760.171875 786.898438 760.347656 787.785156 C 760.523438 788.671875 760.742188 789.546875 761.003906 790.410156 C 761.265625 791.277344 761.570312 792.125 761.917969 792.960938 C 762.261719 793.796875 762.648438 794.613281 763.074219 795.410156 C 763.503906 796.207031 763.964844 796.980469 764.46875 797.734375 C 764.972656 798.484375 765.507812 799.210938 766.082031 799.910156 C 766.65625 800.605469 767.261719 801.277344 767.902344 801.914062 C 768.542969 802.554688 769.210938 803.160156 769.910156 803.734375 C 770.609375 804.308594 771.335938 804.84375 772.085938 805.347656 C 772.839844 805.851562 773.613281 806.3125 774.410156 806.738281 C 775.210938 807.167969 776.027344 807.550781 776.859375 807.898438 C 777.695312 808.246094 778.546875 808.546875 779.414062 808.8125 C 780.277344 809.074219 781.15625 809.292969 782.042969 809.46875 C 782.929688 809.644531 783.820312 809.777344 784.722656 809.867188 C 785.621094 809.957031 786.523438 810 787.429688 810 L 983.335938 810 C 984.238281 810 985.140625 809.957031 986.042969 809.867188 C 986.941406 809.777344 987.835938 809.644531 988.722656 809.46875 C 989.609375 809.292969 990.488281 809.074219 991.351562 808.8125 C 992.21875 808.550781 993.066406 808.246094 993.902344 807.898438 C 994.738281 807.554688 995.554688 807.167969 996.355469 806.742188 C 997.152344 806.316406 997.925781 805.851562 998.679688 805.347656 C 999.429688 804.847656 1000.15625 804.308594 1000.855469 803.734375 C 1001.554688 803.164062 1002.222656 802.554688 1002.863281 801.917969 C 1003.503906 801.277344 1004.109375 800.609375 1004.683594 799.910156 C 1005.257812 799.210938 1005.796875 798.488281 1006.296875 797.734375 C 1006.800781 796.984375 1007.265625 796.207031 1007.691406 795.410156 C 1008.117188 794.613281 1008.503906 793.796875 1008.851562 792.964844 C 1009.195312 792.128906 1009.5 791.277344 1009.761719 790.414062 C 1010.027344 789.546875 1010.246094 788.671875 1010.421875 787.785156 C 1010.597656 786.898438 1010.730469 786.007812 1010.820312 785.105469 C 1010.90625 784.207031 1010.953125 783.304688 1010.953125 782.402344 L 1010.953125 638.730469 C 1010.953125 623.738281 998.976562 611.605469 984.074219 611.207031 Z M 907.972656 690.710938 C 907.851562 691.566406 907.371094 693.519531 907.324219 693.667969 C 905.640625 699.503906 901.609375 704.300781 896.378906 707.214844 L 905.242188 744.984375 C 905.371094 745.375 905.453125 745.773438 905.488281 746.183594 C 905.523438 746.59375 905.511719 747 905.449219 747.40625 C 905.390625 747.8125 905.28125 748.203125 905.128906 748.585938 C 904.976562 748.964844 904.78125 749.324219 904.542969 749.660156 C 904.308594 749.996094 904.035156 750.296875 903.726562 750.570312 C 903.417969 750.839844 903.085938 751.074219 902.722656 751.265625 C 902.359375 751.457031 901.980469 751.605469 901.582031 751.710938 C 901.183594 751.816406 900.78125 751.871094 900.371094 751.878906 L 870.996094 751.878906 C 870.585938 751.871094 870.183594 751.816406 869.785156 751.710938 C 869.390625 751.605469 869.007812 751.457031 868.648438 751.265625 C 868.285156 751.074219 867.949219 750.839844 867.640625 750.570312 C 867.332031 750.296875 867.0625 749.996094 866.824219 749.660156 C 866.585938 749.324219 866.394531 748.964844 866.238281 748.585938 C 866.085938 748.203125 865.980469 747.8125 865.921875 747.40625 C 865.859375 747 865.847656 746.59375 865.882812 746.183594 C 865.917969 745.773438 866 745.375 866.128906 744.984375 L 874.390625 707.214844 C 869.15625 704.300781 865.125 699.503906 863.441406 693.667969 C 863.398438 693.519531 862.917969 691.566406 862.792969 690.710938 C 862.640625 689.65625 862.5625 688.597656 862.558594 687.53125 C 862.558594 686.785156 862.597656 686.039062 862.667969 685.292969 C 862.742188 684.550781 862.851562 683.8125 862.996094 683.078125 C 863.144531 682.347656 863.324219 681.621094 863.539062 680.90625 C 863.757812 680.191406 864.007812 679.488281 864.296875 678.800781 C 864.582031 678.109375 864.898438 677.433594 865.253906 676.773438 C 865.605469 676.117188 865.988281 675.476562 866.402344 674.855469 C 866.820312 674.234375 867.261719 673.632812 867.738281 673.054688 C 868.210938 672.476562 868.714844 671.925781 869.242188 671.394531 C 869.769531 670.867188 870.324219 670.367188 870.902344 669.890625 C 871.480469 669.417969 872.078125 668.972656 872.699219 668.558594 C 873.324219 668.144531 873.960938 667.757812 874.621094 667.40625 C 875.28125 667.054688 875.957031 666.734375 876.648438 666.449219 C 877.339844 666.164062 878.042969 665.910156 878.757812 665.695312 C 879.472656 665.476562 880.195312 665.296875 880.929688 665.152344 C 881.664062 665.003906 882.402344 664.894531 883.144531 664.824219 C 883.890625 664.75 884.636719 664.710938 885.382812 664.710938 C 886.132812 664.710938 886.875 664.75 887.621094 664.824219 C 888.363281 664.894531 889.105469 665.003906 889.835938 665.152344 C 890.570312 665.296875 891.292969 665.476562 892.011719 665.695312 C 892.726562 665.914062 893.429688 666.164062 894.121094 666.449219 C 894.808594 666.734375 895.484375 667.054688 896.144531 667.40625 C 896.804688 667.757812 897.445312 668.144531 898.066406 668.558594 C 898.6875 668.972656 899.289062 669.417969 899.863281 669.890625 C 900.441406 670.367188 900.996094 670.867188 901.523438 671.394531 C 902.054688 671.925781 902.554688 672.476562 903.027344 673.054688 C 903.503906 673.632812 903.949219 674.234375 904.363281 674.855469 C 904.777344 675.476562 905.164062 676.117188 905.515625 676.773438 C 905.867188 677.433594 906.1875 678.109375 906.472656 678.800781 C 906.757812 679.488281 907.007812 680.191406 907.226562 680.90625 C 907.441406 681.621094 907.625 682.347656 907.769531 683.078125 C 907.914062 683.8125 908.023438 684.550781 908.097656 685.292969 C 908.171875 686.039062 908.207031 686.785156 908.207031 687.53125 C 908.207031 688.597656 908.128906 689.65625 907.972656 690.710938 Z M 950.375 611.132812 L 820.386719 611.132812 L 820.386719 584.625 C 820.386719 548.800781 849.535156 519.660156 885.390625 519.660156 C 921.246094 519.660156 950.375 548.800781 950.375 584.625 Z M 950.375 611.132812 " fill-opacity="1" fill-rule="nonzero"/></g></svg>